<?xml version="1.0" encoding="UTF-8" standalone="no"?>
<!DOCTYPE svg PUBLIC "-//W3C//DTD SVG 1.1//EN" "http://www.w3.org/Graphics/SVG/1.1/DTD/svg11.dtd">
<svg width="100%" height="100%" viewBox="0 0 708 365" version="1.1" xmlns="http://www.w3.org/2000/svg" xmlns:xlink="http://www.w3.org/1999/xlink" xml:space="preserve" xmlns:serif="http://www.serif.com/" style="fill-rule:evenodd;clip-rule:evenodd;stroke-linejoin:round;stroke-miterlimit:2;">
    <g transform="matrix(1,0,0,1,-2111.773593,-650.638123)">
        <g transform="matrix(2.8125,0,0,2.8125,1008.703472,129.001628)">
            <path d="M446.126,291.438C450.836,262.617 450.55,256.055 464.537,258.225C480.767,260.743 492.089,260.972 491.307,273.496C489.532,301.922 489.504,312.498 476.448,310.909C443.869,306.943 444.792,300.428 446.126,291.438ZM462.94,278.559C464.092,272.725 462.108,271.011 466.572,269.894C467.163,269.746 473.051,269.831 475.638,271.312C477.391,272.315 477.929,272.887 474.678,296.537C474.083,300.867 464.308,297.701 462.565,297.312C459.772,296.688 460.799,290.951 462.94,278.559Z" style="fill:rgb(248,251,248);stroke:black;stroke-width:3.56px;"/>
        </g>
        <g transform="matrix(2.8125,0,0,2.8125,1008.703472,129.001628)">
            <path d="M641.844,277.481C641.009,287.161 637.581,291.02 606.664,299.969C600.504,301.753 601.756,297.807 599.107,285.577C594.483,264.226 590.835,254.099 594.301,253.013C619.601,245.085 629.847,236.797 635.333,254.547C641.102,273.21 641.518,275.601 641.844,277.481ZM623.316,265.557C626.672,278.052 629.456,281.324 620.426,284.25C619.932,284.411 614.468,286.181 613.929,284.347C606.964,260.643 607.775,259.71 609.695,258.968C616.867,256.196 620.52,254.947 621.705,259.444L623.316,265.557Z" style="fill:rgb(249,251,248);stroke:black;stroke-width:3.56px;"/>
        </g>
        <g transform="matrix(2.8125,0,0,2.8125,1008.703472,129.001628)">
            <path d="M399.166,265.419C399.68,263.491 405.434,241.899 406.538,241.592C408.116,241.152 436.212,251.708 437.587,252.262C445.378,255.401 441.388,270.775 437.339,273.24C433.933,275.314 434.452,276.142 436.257,279.627C439.681,286.237 435.682,294.8 433.179,297.182C430.992,299.262 428.502,301.632 396.401,288.739C392.35,287.112 393.458,284.925 399.166,265.419ZM410.995,276.619C413.988,271.168 415.521,273.404 421.277,275.985C423.858,277.143 429.838,291.085 413.442,284.66C408.903,282.881 410.365,281.548 410.995,276.619ZM428.079,261.452C427.348,263.685 428.427,270.706 416.598,265.285C413.946,264.069 412.277,251.764 426.298,257.886C428.372,258.792 427.749,259.258 428.079,261.452Z" style="fill:rgb(250,251,248);stroke:black;stroke-width:3.56px;"/>
        </g>
        <g transform="matrix(2.8125,0,0,2.8125,1008.703472,129.001628)">
            <path d="M514.926,300.503C514.936,301.504 515.041,312.515 514.173,313.003C513.378,313.45 499.807,314.222 499.692,310.486C499.669,309.737 500.688,265.833 500.781,265.552C501.967,261.999 532.556,263.396 535.352,264.827C536.739,265.537 543.44,268.967 540.744,283.547C540.128,286.875 534.256,289.526 536.895,292.128C544.128,299.259 542.141,300.358 542.245,310.498C542.279,313.846 527.588,313.975 527.132,311.615C525.912,305.296 529.287,295.905 522.506,295.911C522.016,295.911 517.324,295.915 516.381,296.115C514.868,296.437 515.475,297.042 514.926,300.503ZM514.967,278.492C515.122,277.465 514.996,276.409 515.151,275.382C515.483,273.187 526.044,272.591 526.493,276.501C527.361,284.051 527.063,286.189 519.499,286.172C514.027,286.16 515.334,283.905 514.967,278.492Z" style="fill:rgb(248,251,248);stroke:black;stroke-width:3.56px;"/>
        </g>
        <g transform="matrix(2.8125,0,0,2.8125,1008.703472,129.001628)">
            <path d="M567.434,259.153C579.617,256.454 579.548,256.222 580.607,255.99C585.57,254.903 584.347,257.622 585.036,262.575C585.778,267.912 574.252,268.818 573.409,269.003C566.58,270.497 563.819,269.448 564.458,276.507C564.817,280.467 573.097,277.465 580.56,275.761C584.745,274.806 584.349,280.77 584.523,282.497C585.07,287.923 575.919,287.85 568.462,289.346C565.858,289.868 566.924,296.088 567.025,296.677C567.538,299.666 583.622,295.029 588.564,293.907C591.997,293.128 594.709,303.708 589.363,305C555.324,313.227 553.602,311.4 553.354,308.517C551.846,290.991 549.54,271.152 549.304,264.503C549.19,261.27 557.591,260.798 567.434,259.153Z" style="fill:rgb(251,251,247);stroke:black;stroke-width:3.56px;"/>
        </g>
        <g transform="matrix(2.8125,0,0,2.8125,1008.703472,129.001628)">
            <path d="M468.971,222.565C468.177,228.252 467.163,245.724 463.512,245.319C447.325,243.524 457.768,234.794 455.328,231.61C454.23,230.177 445.492,228.368 444.825,230.615C443.406,235.396 445.69,242.02 436.642,239.056C428.314,236.327 431.811,233.475 433.587,226.523C438.724,206.419 439.742,198.862 447.446,199.92C468.627,202.829 471.118,206.182 470.083,214.445C469.743,217.155 469.311,219.854 468.971,222.565ZM447.886,216.581C448.036,215.985 449.574,209.863 451.535,209.819C464.901,209.524 457.721,222.944 455.496,222.7C446.093,221.669 447.714,218.81 447.886,216.581Z" style="fill:rgb(248,251,248);stroke:black;stroke-width:3.56px;"/>
        </g>
        <g transform="matrix(2.8125,0,0,2.8125,1008.703472,129.001628)">
            <path d="M542.356,213.512C542.144,206.515 544.803,207.568 550.51,207.43C551.711,207.401 552.754,207.891 555.885,245.47C556.262,249.989 546.608,249.309 546.491,249.316C542.998,249.551 537.106,238.813 532.091,230.869C529.145,226.204 531.023,245.371 531.133,247.52C531.423,253.184 520.013,251.019 519.601,250.436C518.994,249.577 518.931,211.78 519.05,211.358C519.463,209.888 525.869,209.326 526.484,209.272C528.312,209.112 529.282,209.027 541.04,226.992C544.928,232.933 542.562,216.026 542.356,213.512Z" style="fill:rgb(248,251,248);stroke:black;stroke-width:3.56px;"/>
        </g>
        <g transform="matrix(2.8125,0,0,2.8125,1008.703472,129.001628)">
            <path d="M601.031,218.613C597.475,204.181 593.887,198.185 599.396,196.246C607.715,193.319 606.163,198.32 609.228,206.627C610.446,209.927 619.33,205.568 619.502,205.504C621.755,204.661 617.904,196.034 616.893,193.338C615.182,188.777 625.235,186.309 626.408,187.582C628.731,190.105 638.761,218.683 639.725,221.428C640.374,223.279 639.604,224.007 633.255,227.024C628.397,229.333 628.172,226.79 624.911,217.353C623.001,211.825 621.121,213.747 615.593,215.761C610.558,217.596 614.453,223.035 616.054,227.664C617.954,233.158 615.725,233.069 610.405,235.247C603.515,238.067 604.67,233.34 601.031,218.613Z" style="fill:rgb(248,251,248);stroke:black;stroke-width:3.56px;"/>
        </g>
        <g transform="matrix(2.8125,0,0,2.8125,1008.703472,129.001628)">
            <path d="M493.538,241.054C500.606,240.423 498.569,237.594 498.994,230.523C500.223,210.082 500.435,209.192 502.461,209.14C505.239,209.068 511.193,208.735 511.173,211.527C510.925,247.107 508.097,248.696 505.368,250.23C504.73,250.588 475.671,253.028 475.334,240.513C475.313,239.761 478.718,208.501 479.566,207.56C479.872,207.22 490.344,204.962 489.737,211.53C489.084,218.599 488.837,218.434 488.275,225.482C487.486,235.366 483.809,239.165 493.538,241.054Z" style="fill:rgb(248,251,248);stroke:black;stroke-width:3.56px;"/>
        </g>
        <g transform="matrix(2.8125,0,0,2.8125,1008.703472,129.001628)">
            <path d="M572.207,214.474C574.616,234.684 576.003,235.904 579.441,235.153C589.221,233.016 595.45,227.543 597.391,236.514C597.786,238.339 597.938,240.633 575.544,244.718C562.552,247.088 564.503,235.918 561.18,216.554C559.132,204.621 566.587,205.072 582.449,201.275C592.032,198.981 592.589,208.028 585.542,209.672C575.25,212.073 573.861,210.351 572.207,214.474Z" style="fill:rgb(248,251,248);stroke:black;stroke-width:3.56px;"/>
        </g>
        <g transform="matrix(2.8125,0,0,2.8125,1008.703472,129.001628)">
            <path d="M411.226,216.414C410.394,220.366 410.756,220.912 414.547,222.352C423.454,225.735 428.644,224.912 424.757,233.638C423.736,235.93 413.825,231.692 399.541,225.413C393.261,222.652 398.171,217.018 404.278,200.416C406.753,193.688 408.244,186.426 411.523,187.399C411.936,187.521 420.61,189.012 419.109,193.364C415.093,205.009 415.281,204.922 411.226,216.414Z" style="fill:rgb(248,251,248);stroke:black;stroke-width:3.56px;"/>
        </g>
    </g>
</svg>
